<?xml version="1.0" encoding="UTF-8"?>
<svg width="105px" height="101px" viewBox="0 0 105 101" version="1.1" xmlns="http://www.w3.org/2000/svg" xmlns:xlink="http://www.w3.org/1999/xlink">
    <!-- Generator: Sketch 51.3 (57544) - http://www.bohemiancoding.com/sketch -->
    <title>Logo</title>
    <desc>Created with Sketch.</desc>
    <defs>
        <polygon id="path-1" points="104.788767 50.4456869 104.788767 0.222567191 0 0.222567191 0 50.4456869 0 100.668807 104.788767 100.668807 104.788767 50.4456869"></polygon>
    </defs>
    <g id="Milestone-01" stroke="none" stroke-width="1" fill="none" fill-rule="evenodd">
        <g id="Home-Landing" transform="translate(-94.000000, -62.000000)">
            <g id="Group-17" transform="translate(94.000000, 62.000000)">
                <g id="Logo">
                    <g id="Group-3">
                        <mask id="mask-2" fill="white">
                            <use xlink:href="#path-1"></use>
                        </mask>
                        <g id="Clip-2"></g>
                        <path d="M0,0.222293262 L54.513098,0.222293262 C71.0586928,0.222293262 83.5733943,5.18451438 92.0578911,15.1007388 C100.542388,25.0169631 104.788767,37.3629364 104.788767,52.1297559 C104.788767,67.0424425 100.930675,78.9247912 93.2234423,87.7850199 C85.5155207,96.6541512 75.1584314,100.946616 62.1514858,100.654882 L0,100.654882 L0,0.222293262 Z" id="Fill-1" fill="#1D1D1B" mask="url(#mask-2)"></path>
                    </g>
                    <path d="M16.5895672,32.2076245 L17.0501448,32.2076245 C17.5107224,32.2076245 17.9062343,32.0499965 18.2366805,31.735435 C18.5678577,31.4361503 18.734543,31.0604819 18.734543,30.60843 L18.734543,26.9024373 C18.734543,26.4580237 18.5678577,26.081661 18.2366805,25.7754323 C17.9062343,25.4608708 17.5107224,25.3025484 17.0501448,25.3025484 L16.5895672,25.3025484 L16.5895672,32.2076245 Z M13.8758146,42 L13.125,42 L13.125,41.2757447 L13.125,32.9325741 L13.125,28.7557808 L13.125,22.7249497 L13.125,22 L13.8758146,22 L15.8387526,22 L17.0501448,22 C18.4713558,22 19.6871345,22.4798278 20.6974809,23.4394834 C21.7063652,24.3977502 22.2115385,25.5525311 22.2115385,26.9024373 L22.2115385,30.60843 C22.2115385,31.9583362 21.7063652,33.1131171 20.6974809,34.0713839 C19.6871345,35.0303451 18.4713558,35.5101729 17.0501448,35.5101729 L16.5895672,35.5101729 L16.5895672,41.2757447 L16.5895672,42 L15.8387526,42 L13.8758146,42 Z" id="Fill-4" fill="#FFFFFF"></path>
                    <path d="M26.5271888,31.4937852 L27.1983021,31.4937852 C27.6371069,31.4937852 28.0145209,31.3368516 28.3305441,31.0222901 C28.6465673,30.7077286 28.8049277,30.3320603 28.8049277,29.8945907 L28.8049277,26.9024373 C28.8049277,26.4580237 28.6465673,26.0823554 28.3305441,25.7754323 C28.0145209,25.4608708 27.6371069,25.3032428 27.1983021,25.3032428 L26.5271888,25.3032428 L26.5271888,31.4937852 Z M23.9376126,42 L23.2211538,42 L23.2211538,41.2757447 L23.2211538,32.2076245 L23.2211538,28.0419415 L23.2211538,22.7256441 L23.2211538,22 L23.9376126,22 L25.8107301,22 L27.0824967,22 C28.4386756,22 29.5988225,22.4805222 30.5615422,23.4394834 C31.525657,24.3977502 32.0077145,25.5525311 32.0077145,26.9024373 L32.0077145,29.8945907 C32.0077145,31.1375599 31.4761258,32.2187348 30.6424664,33.1401986 C31.4761258,34.067912 32.0077145,35.1490869 32.0077145,36.3851121 L32.0077145,40.1591556 C31.9763214,40.9646552 32.0760815,41.5785015 32.3076923,42 L29.0009597,42 C28.8628304,41.7708492 28.778418,41.4868412 28.747025,41.1486702 C28.7163295,40.8111937 28.6974937,40.4813555 28.6891223,40.1591556 L28.6891223,36.3851121 C28.6891223,35.9393098 28.5307618,35.5643358 28.2147387,35.2567183 C27.8987155,34.9421568 27.5213015,34.7852232 27.0824967,34.7852232 L26.5271888,34.7852232 L26.5271888,41.2757447 L26.5271888,42 L25.8107301,42 L23.9376126,42 Z" id="Fill-6" fill="#FFFFFF"></path>
                    <path d="M37.0349487,25.636553 C36.806379,25.8594542 36.6931622,26.1281855 36.6931622,26.4420526 L36.6931622,37.5704465 C36.6931622,37.8843136 36.806379,38.1530449 37.0349487,38.3759461 C37.2713511,38.5974585 37.5454924,38.7092563 37.860933,38.7092563 C38.1599962,38.7092563 38.4305772,38.5974585 38.6748122,38.3759461 C38.903382,38.1530449 39.0173109,37.8843136 39.0173109,37.5704465 L39.0173109,26.4420526 C39.0173109,26.1281855 38.903382,25.8594542 38.6748122,25.636553 C38.4469545,25.4150406 38.1756614,25.3032428 37.860933,25.3032428 C37.5383719,25.3032428 37.2635185,25.4150406 37.0349487,25.636553 M41.0701665,23.3131033 C41.9595236,24.1790153 42.4038462,25.2226929 42.4038462,26.4420526 L42.4038462,37.5704465 C42.4038462,38.7821679 41.9595236,39.825151 41.0701665,40.6993959 C40.1822334,41.5666968 39.1113022,42 37.860933,42 C36.5941865,42 35.5246793,41.5666968 34.6509874,40.6993959 C33.7623423,39.8334838 33.3173077,38.7898063 33.3173077,37.5704465 L33.3173077,26.4420526 C33.3173077,25.2143601 33.7623423,24.171377 34.6509874,23.3117145 C35.5325119,22.4374696 36.6020191,22 37.860933,22 C39.1041816,22 40.1736888,22.4374696 41.0701665,23.3131033" id="Fill-8" fill="#FFFFFF"></path>
                    <path d="M46.7025775,25.3025484 L46.7025775,26.4420526 L46.7025775,37.5697521 L46.7025775,38.7092563 L48.0719435,38.7092563 C48.3780208,38.7092563 48.6424549,38.5974585 48.8652458,38.3752517 C49.0873427,38.1530449 49.1983911,37.8843136 49.1983911,37.5697521 L49.1983911,26.4420526 C49.1983911,26.1274911 49.0873427,25.8587598 48.8652458,25.6358586 C48.6500895,25.4143462 48.3863494,25.3025484 48.0719435,25.3025484 L46.7025775,25.3025484 Z M51.2000392,23.3117145 C52.0669111,24.171377 52.5,25.2143601 52.5,26.4420526 L52.5,37.5697521 C52.5,38.7898063 52.0669111,39.8327894 51.2000392,40.6993959 C50.3338614,41.5666968 49.2913942,42 48.0719435,42 L44.1262537,42 L43.4134615,42 L43.4134615,41.2757447 L43.4134615,37.5697521 L43.4134615,26.4420526 L43.4134615,22.7249497 L43.4134615,22 L44.1262537,22 L48.0719435,22 C49.2830656,22 50.3262268,22.4374696 51.2000392,23.3117145 L51.2000392,23.3117145 Z" id="Fill-10" fill="#FFFFFF"></path>
                    <path d="M63.6057692,37.5697521 C63.6057692,38.7898063 63.1614467,39.8327894 62.2720895,40.6993959 C61.3834444,41.5666968 60.3139373,42 59.062856,42 C57.7961095,42 56.7266024,41.5666968 55.8529105,40.6993959 C54.9642654,39.8327894 54.5192308,38.7898063 54.5192308,37.5697521 L54.5192308,22.7249497 L54.5192308,22 L55.2512237,22 L57.1630923,22 L57.8943732,22 L57.8943732,22.7249497 L57.8943732,37.5697521 C57.8943732,37.8843136 58.008302,38.1530449 58.2368718,38.3752517 C58.4732742,38.5974585 58.7481276,38.7092563 59.062856,38.7092563 C59.3775845,38.7092563 59.6481655,38.5974585 59.8767353,38.3752517 C60.1053051,38.1530449 60.2192339,37.8843136 60.2192339,37.5697521 L60.2192339,22.7249497 L60.2192339,22 L60.9626197,22 L62.8623834,22 L63.6057692,22 L63.6057692,22.7249497 L63.6057692,37.5697521 Z" id="Fill-12" fill="#FFFFFF"></path>
                    <path d="M72.3682434,23.3124089 C73.2576005,24.171377 73.7019231,25.2143601 73.7019231,26.4420526 L73.7019231,26.9017429 L73.7019231,27.627387 L72.9585373,27.627387 L71.0587736,27.627387 L70.3146757,27.627387 L70.3146757,26.9017429 L70.3146757,26.4420526 C70.3146757,26.1274911 70.2014589,25.8587598 69.9728892,25.6358586 C69.752864,25.4143462 69.481571,25.3025484 69.1590099,25.3025484 C68.8364488,25.3025484 68.5608834,25.4143462 68.3330257,25.6358586 C68.1044559,25.8587598 67.990527,26.1274911 67.990527,26.4420526 L67.990527,37.5697521 C67.990527,37.8843136 68.1044559,38.1530449 68.3330257,38.3752517 C68.5680039,38.5974585 68.8435693,38.7092563 69.1590099,38.7092563 C69.4737383,38.7092563 69.7443194,38.5974585 69.9728892,38.3752517 C70.2014589,38.1530449 70.3146757,37.8843136 70.3146757,37.5697521 L70.3146757,37.1093674 L70.3146757,36.3844177 L71.0587736,36.3844177 L72.9585373,36.3844177 L73.7019231,36.3844177 L73.7019231,37.1093674 L73.7019231,37.5697521 C73.7019231,38.7898063 73.2576005,39.8327894 72.3682434,40.6993959 C71.4795983,41.5666968 70.4093791,42 69.1590099,42 C67.8922634,42 66.8220442,41.5666968 65.9490643,40.6993959 C65.0604192,39.8327894 64.6153846,38.7898063 64.6153846,37.5697521 L64.6153846,26.4420526 C64.6153846,25.2143601 65.0604192,24.171377 65.9490643,23.3117145 C66.8305888,22.4374696 67.900096,22 69.1590099,22 C70.4022585,22 71.4717657,22.4374696 72.3682434,23.3124089" id="Fill-14" fill="#FFFFFF"></path>
                    <polygon id="Fill-16" fill="#FFFFFF" points="74.4453671 25.3025484 73.7019231 25.3025484 73.7019231 24.5775988 73.7019231 22.7249497 73.7019231 22 74.4453671 22 77.3009329 22 79.2008455 22 82.0578355 22 82.7884615 22 82.7884615 22.7249497 82.7884615 24.5775988 82.7884615 25.3025484 82.0578355 25.3025484 79.9442895 25.3025484 79.9442895 41.2757447 79.9442895 42 79.2008455 42 77.3009329 42 76.558201 42 76.558201 41.2757447 76.558201 25.3025484"></polygon>
                    <path d="M16.4141159,48.3025484 L16.4141159,49.4420526 L16.4141159,60.5697521 L16.4141159,61.7092563 L17.783482,61.7092563 C18.0895592,61.7092563 18.3539933,61.5974585 18.5767843,61.3752517 C18.7988811,61.1530449 18.9099296,60.8843136 18.9099296,60.5697521 L18.9099296,49.4420526 C18.9099296,49.1274911 18.7988811,48.8587598 18.5767843,48.6358586 C18.3616279,48.4143462 18.0978879,48.3025484 17.783482,48.3025484 L16.4141159,48.3025484 Z M20.9115777,46.3117145 C21.7784496,47.171377 22.2115385,48.2143601 22.2115385,49.4420526 L22.2115385,60.5697521 C22.2115385,61.7898063 21.7784496,62.8327894 20.9115777,63.6993959 C20.0453999,64.5666968 19.0015445,65 17.783482,65 L13.8377922,65 L13.125,65 L13.125,64.2757447 L13.125,60.5697521 L13.125,49.4420526 L13.125,45.7249497 L13.125,45 L13.8377922,45 L17.783482,45 C18.994604,45 20.0377653,45.4374696 20.9115777,46.3117145 L20.9115777,46.3117145 Z" id="Fill-18" fill="#FFFFFF"></path>
                    <polygon id="Fill-20" fill="#FFFFFF" points="31.5655347 45 32.3076923 45 32.3076923 45.7249497 32.3076923 47.5775988 32.3076923 48.3025484 31.5655347 48.3025484 27.6028544 48.3025484 27.6028544 53.3549753 29.6663798 53.3549753 30.397864 53.3549753 30.397864 54.0792306 30.397864 55.9325741 30.397864 56.645719 29.6663798 56.645719 27.6028544 56.645719 27.6028544 61.7092563 31.5655347 61.7092563 32.3076923 61.7092563 32.3076923 62.4224012 32.3076923 64.2757447 32.3076923 65 31.5655347 65 24.9615418 65 24.2307692 65 24.2307692 64.2757447 24.2307692 45.7249497 24.2307692 45 24.9615418 45"></polygon>
                    <path d="M36.9532661,65 C34.4229575,65 32.4766223,63.0147212 32.4766223,60.5697521 L32.4766223,58.452538 L35.8078919,58.452538 L35.8078919,60.5697521 C35.8078919,61.2044302 36.3197788,61.7092563 36.9532661,61.7092563 C37.524861,61.7092563 37.942817,61.2120686 37.942817,60.5697521 L37.942817,59.5226026 C37.942817,58.4282342 36.9838482,57.6942573 36.5069124,57.1290188 C35.5661473,56.0131241 34.0210207,54.7507118 33.4414162,53.97646 C32.754046,53.0549962 32.3885166,51.654399 32.35575,50.9495868 L32.3076923,49.4420526 C32.3076923,46.9901396 34.3719872,45 36.9052084,45 C39.4275074,45 41.2733585,46.9727797 41.2733585,49.4420526 L41.2733585,51.547462 L37.942817,51.547462 L37.942817,49.4420526 C37.942817,48.8108465 37.529958,48.3025484 36.9532661,48.3025484 C36.3052158,48.3025484 35.8078919,48.8184848 35.8078919,49.4420526 L35.8078919,50.2829665 C35.8151733,50.627387 36.0612868,51.4558017 36.3860401,51.9043816 C36.9387032,52.6654399 37.7600523,53.2362336 38.1481543,53.6195403 C39.5119724,54.9659746 40.0690044,55.4089994 40.5015233,56.1513089 C41.0316139,57.0602736 41.3825804,58.2338032 41.3825804,59.0399972 L41.3942308,60.5697521 C41.3942308,63.056385 39.4697399,65 36.9532661,65" id="Fill-22" fill="#FFFFFF"></path>
                    <polygon id="Fill-24" fill="#FFFFFF" points="44.7758033 45 45.4326923 45 45.4326923 45.7249497 45.4326923 64.2757447 45.4326923 65 44.7758033 65 43.0607352 65 42.4038462 65 42.4038462 64.2757447 42.4038462 45.7249497 42.4038462 45 43.0607352 45"></polygon>
                    <path d="M51.9955483,45 C53.238797,45 54.3083041,45.4374696 55.2047818,46.3124089 C56.094139,47.1790153 56.5384615,48.2219985 56.5384615,49.4420526 L56.5384615,50.6968266 L53.2694154,50.6968266 L53.2694154,49.4420526 C53.2694154,48.8247344 52.6257173,48.3025484 51.9955483,48.3025484 C51.3546985,48.3025484 50.8270655,48.8184848 50.8270655,49.4420526 L50.8270655,60.5697521 C50.8270655,61.1940143 51.3639552,61.7092563 51.9955483,61.7092563 C52.6079159,61.7092563 53.3876166,61.1877647 53.3876166,60.5697521 L53.3876166,57.2324839 L51.7007574,57.2324839 L51.7007574,54.1722797 L56.5384615,54.1722797 L56.5384615,60.5697521 C56.5384615,62.9813902 54.4763492,65 51.9955483,65 C50.7288018,65 49.6585826,64.5666968 48.7856028,63.6993959 C47.8969577,62.8327894 47.4519231,61.7898063 47.4519231,60.5697521 L47.4519231,49.4420526 C47.4519231,47.0165266 49.5126113,45 51.9955483,45" id="Fill-26" fill="#FFFFFF"></path>
                    <path d="M58.5576923,45 L63.0897292,45 C64.9078138,53.0327755 65.0018158,52.7105757 66.3940427,58.636553 C66.3940427,55.548573 66.2758281,48.08798 66.2758281,45 L69.6634615,45 L69.6634615,65 L65.01321,65 C63.0897292,57.1290188 62.9366198,56.6915492 61.9332195,51.8238317 L61.9332195,65 L58.5576923,65 L58.5576923,45 Z" id="Fill-28" fill="#FFFFFF"></path>
                    <polygon id="Fill-30" fill="#FFFFFF" points="78.0078424 45 78.75 45 78.75 45.7249497 78.75 47.5775988 78.75 48.3025484 78.0078424 48.3025484 74.0451621 48.3025484 74.0451621 53.3549753 76.1086875 53.3549753 76.8401717 53.3549753 76.8401717 54.0792306 76.8401717 55.9325741 76.8401717 56.645719 76.1086875 56.645719 74.0451621 56.645719 74.0451621 61.7092563 78.0078424 61.7092563 78.75 61.7092563 78.75 62.4224012 78.75 64.2757447 78.75 65 78.0078424 65 71.4038495 65 70.6730769 65 70.6730769 64.2757447 70.6730769 45.7249497 70.6730769 45 71.4038495 45"></polygon>
                    <path d="M83.0656504,54.4937852 L83.7367636,54.4937852 C84.1755684,54.4937852 84.5529824,54.3368516 84.8690056,54.0222901 C85.1850288,53.7077286 85.3433892,53.3320603 85.3433892,52.8945907 L85.3433892,49.9024373 C85.3433892,49.4580237 85.1850288,49.0823554 84.8690056,48.7754323 C84.5529824,48.4608708 84.1755684,48.3032428 83.7367636,48.3032428 L83.0656504,48.3032428 L83.0656504,54.4937852 Z M80.4760741,65 L79.7596154,65 L79.7596154,64.2757447 L79.7596154,55.2076245 L79.7596154,51.0419415 L79.7596154,45.7256441 L79.7596154,45 L80.4760741,45 L82.3491916,45 L83.6209582,45 C84.9771372,45 86.1372841,45.4805222 87.1000037,46.4394834 C88.0641186,47.3977502 88.546176,48.5525311 88.546176,49.9024373 L88.546176,52.8945907 C88.546176,54.1375599 88.0145873,55.2187348 87.1809279,56.1401986 C88.0145873,57.067912 88.546176,58.1490869 88.546176,59.3851121 L88.546176,63.1591556 C88.514783,63.9646552 88.614543,64.5785015 88.8461538,65 L85.5394212,65 C85.4012919,64.7708492 85.3168795,64.4868412 85.2854865,64.1486702 C85.2547911,63.8111937 85.2359553,63.4813555 85.2275838,63.1591556 L85.2275838,59.3851121 C85.2275838,58.9393098 85.0692234,58.5643358 84.7532002,58.2567183 C84.437177,57.9421568 84.059763,57.7852232 83.6209582,57.7852232 L83.0656504,57.7852232 L83.0656504,64.2757447 L83.0656504,65 L82.3491916,65 L80.4760741,65 Z" id="Fill-32" fill="#FFFFFF"></path>
                    <path d="M16.1503298,69.5315709 L15.5467983,75.241945 L16.7608941,75.241945 L16.1503298,69.5315709 Z M15.2846712,77.1312404 C15.175345,77.7494394 15.0621829,78.3648059 14.9547747,78.9858374 L13.125,78.9858374 L14.9861021,67 L17.3209509,67 L19.1826923,79 L17.3522783,79 C17.2448701,78.3782604 17.1317079,77.7494394 17.0223818,77.1312404 L15.2846712,77.1312404 Z" id="Fill-34" fill="#FFFFFF"></path>
                    <path d="M24.4992281,67.7876639 C24.9933324,68.303084 25.2403846,68.9291032 25.2403846,69.6657214 L25.2403846,69.9415101 L25.2403846,70.3768167 L24.8270603,70.3768167 L23.7715349,70.3768167 L23.3582106,70.3768167 L23.3582106,69.9415101 L23.3582106,69.6657214 C23.3582106,69.4764268 23.2956061,69.315491 23.1683776,69.1822049 C23.0458612,69.0489188 22.8957451,68.9815668 22.7160096,68.9815668 C22.5369472,68.9815668 22.3841384,69.0489188 22.2575831,69.1822049 C22.1303546,69.315491 22.0670769,69.4764268 22.0670769,69.6657214 L22.0670769,76.3420773 C22.0670769,76.5306629 22.1303546,76.6915987 22.2575831,76.8255938 C22.3888506,76.9588798 22.5409862,77.0255229 22.7160096,77.0255229 C22.8910329,77.0255229 23.0418222,76.9588798 23.1683776,76.8255938 C23.2956061,76.6915987 23.3582106,76.5306629 23.3582106,76.3420773 L23.3582106,76.0662886 L23.3582106,75.6309819 L23.7715349,75.6309819 L24.8270603,75.6309819 L25.2403846,75.6309819 L25.2403846,76.0662886 L25.2403846,76.3420773 C25.2403846,77.0737327 24.9933324,77.6997519 24.4992281,78.2194257 C24.0057969,78.7398086 23.4107176,79 22.7160096,79 C22.0125504,79 21.4181442,78.7398086 20.932791,78.2194257 C20.4393599,77.6997519 20.1923077,77.0737327 20.1923077,76.3420773 L20.1923077,69.6657214 C20.1923077,68.9291032 20.4393599,68.303084 20.932791,67.786955 C21.4228564,67.2630273 22.0165894,67 22.7160096,67 C23.4066786,67 24.0010848,67.2630273 24.4992281,67.7876639" id="Fill-36" fill="#FFFFFF"></path>
                    <path d="M28.2657144,69.5315709 L27.6621829,75.241945 L28.8762787,75.241945 L28.2657144,69.5315709 Z M27.4000558,77.1312404 C27.2907297,77.7494394 27.1775675,78.3648059 27.0701593,78.9858374 L25.2403846,78.9858374 L27.1014867,67 L29.4363355,67 L31.2980769,79 L29.4676629,79 C29.3596154,78.3782604 29.2470926,77.7494394 29.1377664,77.1312404 L27.4000558,77.1312404 Z" id="Fill-38" fill="#FFFFFF"></path>
                    <path d="M35.1447995,68.9815668 L35.1447995,69.6650124 L35.1447995,76.3420773 L35.1447995,77.0255229 L35.9053248,77.0255229 C36.0759344,77.0255229 36.2229212,76.9581709 36.3462851,76.8248848 C36.469649,76.6915987 36.5313309,76.5306629 36.5313309,76.3420773 L36.5313309,69.6650124 C36.5313309,69.4764268 36.469649,69.315491 36.3462851,69.1814959 C36.2268583,69.0482099 36.0798716,68.9815668 35.9053248,68.9815668 L35.1447995,68.9815668 Z M37.6435746,67.786955 C38.1252187,68.302375 38.3653846,68.9283942 38.3653846,69.6650124 L38.3653846,76.3420773 C38.3653846,77.0737327 38.1252187,77.6997519 37.6435746,78.2194257 C37.1625866,78.7398086 36.5825138,79 35.9053248,79 L33.713647,79 L33.3173077,79 L33.3173077,78.5654023 L33.3173077,76.3420773 L33.3173077,69.6650124 L33.3173077,67.4353066 L33.3173077,67 L33.713647,67 L35.9053248,67 C36.5785767,67 37.1579933,67.2623183 37.6435746,67.786955 L37.6435746,67.786955 Z" id="Fill-40" fill="#FFFFFF"></path>
                    <polygon id="Fill-42" fill="#FFFFFF" points="43.9591382 67 44.4230769 67 44.4230769 67.4353066 44.4230769 68.5462602 44.4230769 68.9815668 43.9591382 68.9815668 41.4820234 68.9815668 41.4820234 72.0131159 42.7724239 72.0131159 43.2295511 72.0131159 43.2295511 72.4477136 43.2295511 73.5593761 43.2295511 73.9875931 42.7724239 73.9875931 41.4820234 73.9875931 41.4820234 77.0255229 43.9591382 77.0255229 44.4230769 77.0255229 44.4230769 77.4530308 44.4230769 78.5654023 44.4230769 79 43.9591382 79 39.8313704 79 39.375 79 39.375 78.5654023 39.375 67.4353066 39.375 67 39.8313704 67"></polygon>
                    <polygon id="Fill-44" fill="#FFFFFF" points="44.4230769 67 47.6847641 67 48.9706492 75.0645161 50.2479282 67 53.5096154 67 53.5096154 79 51.4427327 79 51.4427327 70.4108472 49.9409796 79 48.0619953 79 46.4906768 70.4108472 46.4906768 79 44.4230769 79"></polygon>
                    <path d="M56.264245,67 C56.4452183,68.2917948 56.8185507,70.3490187 57.0456662,71.4279972 C57.3123322,69.9375739 57.6359269,68.0981319 57.8222934,67 L59.5673077,67 C59.3294057,68.0101679 57.8810199,74.1775834 57.8810199,74.1775834 L57.8810199,79 L56.2055186,79 L56.2055186,74.2471033 C55.3713634,70.971861 54.9045481,68.5400804 54.5192308,67 L56.264245,67 Z" id="Fill-46" fill="#FFFFFF"></path>
                </g>
            </g>
        </g>
    </g>
</svg>